<svg width="28" height="28" viewBox="0 0 28 28" fill="none" xmlns="http://www.w3.org/2000/svg">
<path d="M14.1999 0.399902C6.5907 0.399902 0.399902 6.5907 0.399902 14.1999C0.399902 21.8091 6.5907 27.9999 14.1999 27.9999C21.8097 27.9999 27.9999 21.8091 27.9999 14.1999C27.9999 6.5907 21.8097 0.399902 14.1999 0.399902ZM20.1837 16.9209C21.5259 18.1125 21.8049 18.5379 21.8505 18.6105C22.4067 19.4925 21.2337 19.5999 21.2337 19.5999H18.7617C18.7617 19.5999 18.1599 19.6065 17.6457 19.2657C16.8075 18.7167 15.9297 17.6523 15.3129 17.8371C14.7951 17.9919 14.7999 18.6915 14.7999 19.2897C14.7999 19.5039 14.6157 19.5999 14.1999 19.5999C13.7841 19.5999 13.6113 19.5999 13.4271 19.5999C12.0729 19.5999 10.6035 19.1439 9.1377 17.6121C7.0641 15.4467 5.2455 11.0847 5.2455 11.0847C5.2455 11.0847 5.1381 10.8651 5.2551 10.7313C5.3877 10.5813 5.7483 10.6005 5.7483 10.6005L8.1453 10.5999C8.1453 10.5999 8.3709 10.6425 8.5329 10.7565C8.6667 10.8501 8.7411 11.0289 8.7411 11.0289C8.7411 11.0289 9.1437 12.3585 9.6567 13.2063C10.6587 14.8611 11.1249 14.9031 11.4651 14.7249C11.9619 14.4669 11.7999 12.7077 11.7999 12.7077C11.7999 12.7077 11.8221 11.9523 11.5629 11.6157C11.3631 11.3553 10.9809 11.2167 10.8141 11.1951C10.6791 11.1777 10.9047 10.9413 11.1921 10.8063C11.5761 10.6353 12.0987 10.5915 12.9999 10.5999C13.7013 10.6065 13.9035 10.6485 14.1771 10.7115C15.0045 10.9023 14.7999 11.4057 14.7999 13.1733C14.7999 13.7397 14.7219 14.5359 15.1491 14.7999C15.3333 14.9139 15.9645 15.0531 17.0877 13.2291C17.6211 12.3639 18.0453 10.9287 18.0453 10.9287C18.0453 10.9287 18.1329 10.7709 18.2691 10.6929C18.4083 10.6131 18.4041 10.6149 18.5949 10.6149C18.7857 10.6149 20.6991 10.5999 21.1191 10.5999C21.5385 10.5999 21.9321 10.5951 21.9999 10.8411C22.0971 11.1945 21.6903 12.4053 20.6595 13.7193C18.9657 15.8757 18.7779 15.6741 20.1837 16.9209Z" fill="black"/>
</svg>
