<svg width="28" height="28" viewBox="0 0 28 28" fill="none" xmlns="http://www.w3.org/2000/svg">
<path opacity="0.8" fill-rule="evenodd" clip-rule="evenodd" d="M13.8 0C21.4161 0 27.6 6.17565 27.6 13.8C27.6 21.4161 21.4244 27.6 13.8 27.6C6.18392 27.6 0 21.4244 0 13.8C0 6.18392 6.17565 0 13.8 0ZM10.5714 6.22532H17.0286C19.4541 6.22532 21.4326 8.18728 21.4326 10.5714V17.012C21.4326 19.4044 19.4541 21.3581 17.0286 21.3581H10.5714C8.14589 21.3581 6.16737 19.4044 6.16737 17.012V10.5714C6.16737 8.179 8.15417 6.22532 10.5714 6.22532ZM13.7586 9.7105C16.1179 9.7105 18.0302 11.6228 18.0302 13.9821C18.0302 16.3415 16.1179 18.2537 13.7586 18.2537C11.3993 18.2537 9.48698 16.3415 9.48698 13.9821C9.48698 11.6228 11.3993 9.7105 13.7586 9.7105ZM13.7586 11.1509C15.3149 11.1509 16.5815 12.4175 16.5815 13.9738C16.5815 15.5302 15.3149 16.7968 13.7586 16.7968C12.194 16.7968 10.9357 15.5302 10.9357 13.9738C10.9357 12.4175 12.2023 11.1509 13.7586 11.1509ZM17.8895 9.11446C18.2703 9.11446 18.5849 9.42076 18.5849 9.80984C18.5849 10.1906 18.2786 10.5052 17.8895 10.5052C17.5087 10.5052 17.1941 10.1989 17.1941 9.80984C17.1941 9.42903 17.5004 9.11446 17.8895 9.11446ZM11.1013 7.45879H16.4987C18.5269 7.45879 20.1826 9.10618 20.1826 11.1261V16.5567C20.1826 18.5766 18.5269 20.224 16.4987 20.224H11.1013C9.07307 20.224 7.4174 18.5766 7.4174 16.5567V11.1261C7.4174 9.10618 9.07307 7.45879 11.1013 7.45879Z" fill="black"/>
</svg>
